# xmcd
#
# Track frame offsets: 
#        150
#        22153
#        48763
#
# Disc length: 932 seconds
#
# Revision: 0
# Processed by: cddbd v1.5.2PL0 Copyright (c) Steve Scherf et al.
# Submitted via: ExactAudioCopy v0.95b4
#
DISCID=1d03a203
DTITLE=13-я зарплата - 13-я зарплата
DYEAR=2006
DGENRE=Rock
TTITLE0=Хоккей на траве
TTITLE1=Город, где встретились мы
TTITLE2=Раскрась мои дни
EXTD=first riped By -=Ale][_aka_Ca$p=
EXTT0=
EXTT1=
EXTT2=
PLAYORDER=
